<?xml version="1.0" standalone="no"?>
<!DOCTYPE svg PUBLIC "-//W3C//DTD SVG 20010904//EN"
 "http://www.w3.org/TR/2001/REC-SVG-20010904/DTD/svg10.dtd">
<svg version="1.0" xmlns="http://www.w3.org/2000/svg"
 width="240.000000pt" height="240.000000pt" viewBox="0 0 240.000000 240.000000"
 preserveAspectRatio="xMidYMid meet">
<metadata>
Created by potrace 1.11, written by Peter Selinger 2001-2013
</metadata>
<g transform="translate(0.000000,240.000000) scale(0.100000,-0.100000)"
fill="#000000" stroke="none">
<path d="M994 2278 c-4 -13 -8 -32 -10 -43 -1 -11 -12 -60 -24 -110 -12 -49
-23 -99 -26 -110 -2 -11 -6 -30 -9 -42 -3 -13 -7 -33 -10 -45 -4 -19 -17 -76
-44 -193 l-7 -30 -311 -3 -311 -2 -8 -43 c-4 -23 -8 -44 -9 -47 -1 -3 -5 -21
-9 -40 -4 -19 -10 -43 -12 -52 -5 -17 14 -18 304 -18 l310 0 -9 -37 c-5 -21
-27 -119 -50 -218 -23 -99 -42 -184 -43 -190 -12 -48 -29 -141 -28 -145 1 -3
-120 -7 -270 -10 l-272 -5 -13 -50 c-7 -27 -15 -63 -18 -80 -3 -16 -8 -38 -11
-47 -5 -16 14 -18 263 -20 232 -3 268 -5 265 -18 -2 -8 -5 -22 -7 -30 -2 -8
-22 -96 -45 -195 -23 -99 -44 -191 -46 -205 -3 -14 -9 -41 -13 -60 -5 -19 -12
-47 -15 -62 l-6 -28 100 0 100 0 6 28 c3 15 8 35 11 44 2 10 6 28 9 40 3 13
28 127 57 253 l52 230 252 3 251 2 -8 -32 c-11 -37 -118 -507 -124 -544 -5
-24 -5 -24 94 -24 85 0 99 2 104 18 3 9 16 70 31 134 14 65 28 123 30 130 2 7
6 24 9 38 2 14 11 54 20 90 8 36 17 79 20 95 3 17 10 44 14 60 l8 30 311 3
311 2 7 40 c4 22 6 41 6 42 0 2 6 25 14 52 8 27 15 53 15 57 0 5 -139 10 -308
11 l-309 3 23 100 c13 55 26 114 29 130 4 17 23 104 44 195 l38 165 270 3 270
2 13 63 c15 72 16 73 25 109 l7 28 -268 2 c-233 3 -269 5 -266 18 2 8 5 22 7
30 2 8 22 96 45 195 23 99 44 191 46 205 3 14 12 50 20 81 7 31 14 60 14 63 0
3 -45 6 -99 6 -109 0 -101 5 -117 -70 -4 -19 -9 -39 -10 -45 -20 -85 -66 -286
-70 -309 -3 -16 -6 -32 -8 -35 -2 -3 -7 -22 -10 -41 -3 -19 -9 -48 -14 -65
l-8 -30 -251 -3 -250 -2 23 97 c12 54 25 109 28 123 2 14 21 95 40 180 20 85
38 165 41 178 4 22 2 22 -95 22 -93 0 -99 -1 -106 -22z m514 -820 c-5 -24 -25
-113 -44 -198 -20 -85 -37 -163 -39 -173 -3 -10 -6 -26 -9 -35 -3 -9 -8 -30
-10 -47 -3 -16 -10 -44 -15 -62 -5 -17 -7 -34 -3 -37 3 -3 -111 -6 -252 -6
-238 0 -258 1 -252 17 7 17 19 69 80 343 14 63 32 141 39 172 8 32 12 60 9 63
-3 3 110 5 250 5 l256 0 -10 -42z"/>
</g>
</svg>
